<?xml version="1.0" standalone="no"?>
<!DOCTYPE svg PUBLIC "-//W3C//DTD SVG 20010904//EN"
 "http://www.w3.org/TR/2001/REC-SVG-20010904/DTD/svg10.dtd">
<svg version="1.0" xmlns="http://www.w3.org/2000/svg"
 width="500.000000pt" height="500.000000pt" viewBox="0 0 500.000000 500.000000"
 preserveAspectRatio="xMidYMid meet">
<metadata>
Created by potrace 1.14, written by Peter Selinger 2001-2017
</metadata>
<g transform="translate(0.000000,500.000000) scale(0.100000,-0.100000)"
fill="#000000" stroke="none">
<path d="M1915 4404 c-361 -37 -656 -174 -900 -419 -276 -275 -418 -617 -418
-1005 0 -307 87 -582 264 -835 91 -130 1154 -1193 1284 -1284 253 -177 528
-264 835 -264 388 0 730 142 1005 418 276 275 418 617 418 1005 0 307 -87 582
-264 835 -91 129 -1154 1193 -1284 1284 -171 120 -388 211 -586 245 -91 16
-287 27 -354 20z m1264 -1499 c340 -78 598 -338 678 -683 23 -103 23 -281 0
-384 -81 -348 -337 -604 -685 -685 -103 -23 -281 -23 -384 0 -348 81 -604 337
-685 685 -23 103 -23 281 0 384 46 197 146 364 297 493 132 112 289 180 485
209 55 8 221 -3 294 -19z"/>
</g>
</svg>
